<svg xmlns="http://www.w3.org/2000/svg" width="16.955" height="16.958" viewBox="0 0 16.955 16.958">
  <g id="Layer_2" data-name="Layer 2" transform="translate(-0.999 -1)" opacity="0.8">
    <path id="Path_16159" data-name="Path 16159" d="M17.953,12.585h-1.13v-2.9A7.44,7.44,0,0,0,9.477,2.159,7.44,7.44,0,0,0,2.13,9.689v2.9H1v-2.9A8.585,8.585,0,0,1,9.477,1a8.585,8.585,0,0,1,8.477,8.689Z"/>
    <path id="Path_16160" data-name="Path 16160" d="M4.521,21.951h-.7A2.862,2.862,0,0,1,1,19.055V17.9A2.862,2.862,0,0,1,3.826,15h.7a1.031,1.031,0,0,1,1,1.043v4.866a1.031,1.031,0,0,1-1,1.043Zm-.7-5.793A1.717,1.717,0,0,0,2.13,17.9v1.159A1.717,1.717,0,0,0,3.83,20.8h.565V16.159Zm11.3,5.793H14.45a1.03,1.03,0,0,1-1.017-1.043V16.043A1.03,1.03,0,0,1,14.45,15h.678a2.862,2.862,0,0,1,2.826,2.9v1.159a2.862,2.862,0,0,1-2.826,2.892Zm-.565-1.159h.565a1.717,1.717,0,0,0,1.7-1.738V17.9a1.717,1.717,0,0,0-1.7-1.738h-.565Z" transform="translate(0 -6.315)"/>
    <path id="Path_16161" data-name="Path 16161" d="M4.317,16H5.03a.463.463,0,0,1,.463.463v4.866a.463.463,0,0,1-.463.463H4.317A2.317,2.317,0,0,1,2,19.476V18.317A2.317,2.317,0,0,1,4.317,16Z" transform="translate(-0.421 -6.629)"/>
    <path id="Path_16162" data-name="Path 16162" d="M2.317,0h.7A.463.463,0,0,1,3.48.463V5.329a.463.463,0,0,1-.463.463h-.7A2.317,2.317,0,0,1,0,3.476V2.317A2.317,2.317,0,0,1,2.317,0Z" transform="translate(17.374 15.163) rotate(180)"/>
    <path id="Path_16163" data-name="Path 16163" d="M20.57,28.9H16.579A.579.579,0,0,1,16,28.317h0a.579.579,0,0,1,.579-.579h4.055a.579.579,0,0,0,.579-.579V26h1.159v1.159a1.738,1.738,0,0,1-.759,1.442,1.813,1.813,0,0,1-1.043.3Z" transform="translate(-6.736 -10.943)"/>
  </g>
</svg>
